<svg xmlns="http://www.w3.org/2000/svg" viewBox="0 0 365.44 49.33"><defs><style>.cls-1{fill:#f60;fill-rule:evenodd}</style></defs><g id="图层_2" data-name="图层 2"><g id="图层_1-2" data-name="图层 1"><path class="cls-1" d="M87.47 46.22a1.23 1.23 0 00-.29-.17 1.38 1.38 0 00.75-.33.93.93 0 00.24-.65 1 1 0 00-.15-.53.74.74 0 00-.38-.34 2.21 2.21 0 00-.72-.09h-1.55v3.55h.46v-1.58h.8a.5.5 0 01.21.1 1 1 0 01.24.23c.08.12.2.28.34.5l.45.73h.59l-.61-1a2.68 2.68 0 00-.38-.42zm-.64-.56h-1v-1.15H87a.87.87 0 01.56.15.54.54 0 01.18.41.59.59 0 01-.09.32.51.51 0 01-.28.21 1.59 1.59 0 01-.54.06z"/><path class="cls-1" d="M86.68 42.57A3.38 3.38 0 1090 46a3.36 3.36 0 00-3.32-3.43zm0 6.23a2.86 2.86 0 112.83-2.8 2.84 2.84 0 01-2.83 2.8z"/><path d="M59.16 42c-4 .18-3.56-1.88-1.24-5.07 5.42-7.27 15.7-17.41 16-24.59C74.6 3 65.17-.09 55.47 0A59.92 59.92 0 0037 3.73C20.55 9.52 10.23 18.81 3.74 29.09-3.16 39.28-.89 49 13.66 49.33c11.16-.45 18.41-3.54 26-7.41 0 0-20.91 6-28.61 1.58a3.38 3.38 0 01-1.88-2.81c0-3.64 6-7.41 9.39-8.62v-6.3a22.22 22.22 0 0022.31-3.7A5.36 5.36 0 0141 23.9h1.52a4.52 4.52 0 00-.71-2.9 4.63 4.63 0 00-3.76-2.14 5.48 5.48 0 012.18 1.92 20.39 20.39 0 01-19.18 3.83l5-4.94-1.38-3.59a180.56 180.56 0 0132.09-8.57L53.69 5l1.6-1C63.55 6.29 69 8 68.66 12.39a10.91 10.91 0 01-.83 2.51c-2.4 4.76-9.56 12.7-12.45 16a61.61 61.61 0 00-5.12 6.42A11.37 11.37 0 0048 43.18c.17 14.41 42.48-6.73 50.66-12.34C86.56 36 73.53 41.07 59.16 42zm215.65-.82a1.43 1.43 0 01-.9-.82 5 5 0 01-.27-1.9 3.08 3.08 0 01.62-2.31 5.3 5.3 0 014.62 0 3.08 3.08 0 01.62 2.31 3.27 3.27 0 01-.62 2.38 3.54 3.54 0 01-2.31.55 5.72 5.72 0 01-1.76-.21zm14.35-.91a7.39 7.39 0 01-3.59-3.75 17.34 17.34 0 01-1.22-7.14 17.34 17.34 0 011.22-7.14 7.39 7.39 0 013.59-3.75 13.84 13.84 0 015.91-1.12 19.23 19.23 0 016.05.86v3.39a16.88 16.88 0 00-6-1 8.74 8.74 0 00-4.08.79 4.57 4.57 0 00-2.1 2.71 17.35 17.35 0 00-.64 5.33 17 17 0 00.64 5.28 4.49 4.49 0 002.1 2.66 9 9 0 004.12.77 16 16 0 006-1v3.39a15.55 15.55 0 01-2.75.6 23.6 23.6 0 01-3.39.26 13.69 13.69 0 01-5.86-1.14zm21.31 0a7.33 7.33 0 01-3.58-3.75 17.16 17.16 0 01-1.23-7.14 17.16 17.16 0 011.23-7.14 7.33 7.33 0 013.58-3.75 13.84 13.84 0 015.91-1.12 13.67 13.67 0 015.92 1.12 7.42 7.42 0 013.54 3.75 17.34 17.34 0 011.22 7.14 17.34 17.34 0 01-1.22 7.14 7.42 7.42 0 01-3.54 3.75 13.53 13.53 0 01-5.92 1.12 13.69 13.69 0 01-5.91-1.12zm10-2.83a4.48 4.48 0 002.06-2.7 18.54 18.54 0 00.6-5.36 18 18 0 00-.64-5.36 4.62 4.62 0 00-2.11-2.74 8.21 8.21 0 00-4-.82 8.31 8.31 0 00-4.09.82 4.57 4.57 0 00-2.06 2.72 18.33 18.33 0 00-.62 5.38 17.37 17.37 0 00.64 5.34 4.66 4.66 0 002.1 2.72 8.24 8.24 0 004 .82 8.44 8.44 0 004.15-.82zm43.09-17.99a8.12 8.12 0 011.88 5.65v16.29h-3.76V26.46a7.46 7.46 0 00-1-4.3 4 4 0 00-3.54-1.42 7.68 7.68 0 00-3.86.89 5.29 5.29 0 00-2.28 3.25v16.51h-3.75V26.46a8 8 0 00-.94-4.33 3.8 3.8 0 00-3.31-1.39 7.67 7.67 0 00-3.92.87 5.84 5.84 0 00-2.37 3.39v16.39H333V17.81h3.75v3.1a5.74 5.74 0 012.73-2.75 9.83 9.83 0 014.08-.79c3.49 0 5.78 1.29 6.86 3.85 1.16-2.56 3.61-3.85 7.33-3.85 2.61 0 4.56.7 5.81 2.08zM136.28 8.19h7.29v33.18h-7.29zm12.57 2.99c0-3.41.7-3.67 4-3.67s4 .26 4 3.67-.66 3.75-4 3.75-4-.39-4-3.75zm.35 6.64h7.25v23.57h-7.25zm36.4 11.77c0 6.86-1.75 12.23-9.3 12.23-4.45 0-6.2-1.36-7.07-3.45l-.44 3h-6.63V8.2h7.24v12c1-1.39 2.88-2.79 6.9-2.79 7.55-.04 9.3 4.59 9.3 12.18zm-7.38 0c0-4.1-.61-6.94-4.45-6.94S169 25.14 169 29.59c0 4.24.92 6.86 4.76 6.86s4.46-3.01 4.46-6.86zm33.09-4.41v16.19h-6.5l-.61-2.49c-.92 1.49-3.23 2.93-7.25 2.93-5.11 0-8-2.31-8-7.25 0-5.45 3.23-7.42 9.78-7.42h5.41V27c0-2.79-.83-3.54-4.76-3.54a42 42 0 00-5.9.4V17.8a61.72 61.72 0 016.82-.39c8.05 0 11.01 2.59 11.01 7.77zm-7.2 9v-2.32H200c-2.88 0-4 .48-4 2.4 0 1.52 1 2.09 3.06 2.09 2.52 0 4.35-.91 5.05-2.14zm36.71-4.59c0 6.85-1.75 12.22-9.3 12.22-4.45 0-6.2-1.35-7.07-3.45l-.44 3h-6.64V8.19h7.25v12c1-1.4 2.88-2.8 6.9-2.8 7.55-.03 9.3 4.61 9.3 12.2zm-7.38 0c0-4.11-.61-6.95-4.45-6.95s-4.76 2.49-4.76 7c0 4.23.91 6.85 4.76 6.85s4.45-3.06 4.45-6.9zm-111.01 4.1h-11.88l-2.4 7.63h-7.9l11.22-33.07h10.26l11.13 33.07h-8.07zm-2.1-6.76l-3.53-11.49h-.53l-3.62 11.49zm146.13-1.75v16.19H260l-.61-2.49c-.91 1.49-3.23 2.93-7.24 2.93-5.11 0-8-2.31-8-7.25 0-5.45 3.23-7.42 9.78-7.42h5.42V27c0-2.79-.83-3.54-4.76-3.54a43.76 43.76 0 00-5.91.4V17.8a61.86 61.86 0 016.82-.39c7.99 0 10.96 2.59 10.96 7.77zm-7.2 9v-2.32h-4.15c-2.88 0-4 .48-4 2.4 0 1.53 1 2.09 3.05 2.09 2.56 0 4.4-.91 5.1-2.14z" fill="#f60"/></g></g></svg>